<?xml version="1.0" encoding="UTF-8" standalone="no"?>
<svg
   width="189"
   height="189"
   overflow="hidden"
   version="1.1"
   id="svg2"
   sodipodi:docname="Logo.svg"
   inkscape:version="1.3.2 (091e20e, 2023-11-25, custom)"
   xmlns:inkscape="http://www.inkscape.org/namespaces/inkscape"
   xmlns:sodipodi="http://sodipodi.sourceforge.net/DTD/sodipodi-0.dtd"
   xmlns="http://www.w3.org/2000/svg"
   xmlns:svg="http://www.w3.org/2000/svg">
  <defs
     id="defs2" />
  <sodipodi:namedview
     id="namedview2"
     pagecolor="#ffffff"
     bordercolor="#000000"
     borderopacity="0.25"
     inkscape:showpageshadow="2"
     inkscape:pageopacity="0.0"
     inkscape:pagecheckerboard="0"
     inkscape:deskcolor="#d1d1d1"
     showgrid="false"
     inkscape:zoom="4.3015873"
     inkscape:cx="94.5"
     inkscape:cy="94.5"
     inkscape:window-width="1920"
     inkscape:window-height="1009"
     inkscape:window-x="1912"
     inkscape:window-y="-8"
     inkscape:window-maximized="1"
     inkscape:current-layer="g2" />
  <g
     id="g2">
    <path
       d="m 15.333294,7.5999806 q -1.599996,0 -2.66666,-1.7333289 -0.799998,-0.799998 -1.733329,-2.5333269 -0.9333306,-1.7333289 -0.666665,-5.5999857 0.399999,-3.9999898 2.933326,-11.5999701 1.33333,-5.066654 2.133328,-7.333315 0.799998,-2.399994 0.799998,-3.466658 0,-1.466663 0.266666,-2.399993 0.399999,-1.066664 0.399999,-1.999995 0.799998,0 1.599996,-1.466663 0.799998,-1.466663 1.33333,-3.99999 0.533332,-2.266661 0.933331,-3.599991 0.533332,-1.466663 0.533332,-1.999995 0.666665,-1.066664 1.33333,-3.333325 0.799998,-2.26666 2.399994,-5.466652 1.066664,-3.99999 2.399993,-8.266646 1.33333,-4.399989 2.66666,-8.133312 1.466663,-3.866657 2.399994,-5.999985 1.466663,-4.133323 2.266661,-5.733319 0.799998,-1.733329 0,-2.266661 -0.933331,-0.666665 -0.933331,-3.333324 0.133333,-2.799993 2.533327,-4.799988 1.466663,-1.733329 3.733324,-2.399994 2.266661,-0.799998 5.199986,-0.799998 2.933326,0 6.133318,0.266666 2.399994,0.133333 5.066654,0.133333 2.799993,0 3.466658,0 1.199997,0.533332 2.933325,1.199997 1.733329,0.666665 3.066659,1.33333 1.466663,0.533332 1.466663,0.933331 0,0.799998 0.533332,1.066664 0.666665,0.133333 1.33333,0.266666 0.933331,0 3.066659,1.733329 2.133328,1.599996 4.266656,3.999989 2.266661,2.266661 3.199992,4.533322 1.066663,2.266661 1.733328,4.266656 0.799998,1.999995 0.133333,5.733319 -0.133333,1.999995 -0.666665,3.999989 -0.399998,1.999995 -0.93333,2.66666 -0.799998,0.533332 -1.466663,1.33333 -0.666665,0.799998 -0.666665,1.466663 0,0.533332 -1.066664,2.66666 -1.066664,1.999995 -2.66666,4.666655 -1.599996,2.533327 -3.466658,5.066653 -1.866662,2.533327 -3.466658,3.99999 -1.733329,2.133328 -4.133323,3.99999 -2.26666,1.866662 -4.133322,3.066659 -3.466658,1.599996 -7.99998,3.066659 -4.399989,1.466663 -8.533311,2.399993 -4.133323,0.799998 -6.66665,0.666665 -3.866657,0.533332 -5.066654,1.066664 -1.199997,0.399999 -1.733329,2.266661 -0.666665,1.733329 -1.33333,3.599991 -0.533332,1.866662 -0.533332,2.66666 -0.266665,0.533332 -1.199996,2.933326 -0.799998,2.399994 -1.999995,5.5999854 -1.066664,3.1999919 -1.999995,6.3999837 -0.933331,3.1999918 -1.466663,5.4666527 -0.533332,1.8666619 -2.266661,2.7999928 -1.599996,0.933331 -2.799993,0.933331 z M 34.266579,-36.933239 q 0.533332,0.533332 3.466658,0.133333 2.933326,-0.399999 7.066648,-1.999995 2.66666,-0.933331 5.33332,-2.266661 2.799993,-1.33333 5.33332,-2.933326 1.33333,-0.93333 2.799993,-2.26666 1.466663,-1.466663 4.133323,-4.799988 0.399998,-0.666665 1.333329,-2.533327 1.066664,-1.999995 1.866662,-3.733324 1.199997,-1.866662 2.399994,-5.466652 1.199997,-3.733324 0.533332,-6.133318 -0.666665,-3.466658 -2.66666,-5.733319 -1.999995,-2.399994 -5.066653,-3.466658 -2.933326,-0.533332 -4.933321,-0.666665 -1.866662,-0.133333 -4.133323,0.266666 -2.133328,0.666665 -3.066659,1.866662 -0.799998,1.199997 -2.399994,5.066654 -0.933331,1.866662 -2.666659,5.199987 -1.733329,3.199992 -2.933326,6.533316 -2.399994,8.799978 -4.266656,13.466633 -1.733329,4.666654 -2.266661,6.133317 0.133333,1.466663 -0.133333,2.133328 -0.266666,0.533332 0.266666,1.199997 z"
       id="text1"
       style="font-weight:700;font-size:133.333px;font-family:Caveat, Caveat_MSFontService, sans-serif;fill:#e6f1ff;fill-opacity:1"
       transform="translate(5.17591 136)"
       aria-label="P" />
    <path
       d="m 89.99977,6.3999836 q -0.533332,0.533332 -2.533327,0.266666 -1.999995,-0.133333 -3.199992,-1.8666619 -0.933331,-1.8666619 -1.066664,-4.26665573 -0.133333,-2.39999387 0,-6.66664967 0.799998,-4.6666543 2.66666,-12.2666353 1.866662,-7.599981 4.133323,-16.93329 2.399994,-9.466642 4.799988,-19.333284 1.199997,-4.666655 1.866662,-7.866647 0.799998,-3.199991 1.066664,-4.799987 0.399999,-1.733329 0.399999,-1.733329 -0.133333,0.266666 -0.399999,0.533332 -0.133333,0.266666 -0.266666,0.533332 -0.133333,0.266666 -0.266666,0.533332 0,0 -0.533332,0.933331 -0.399999,0.933331 -1.866662,3.199992 -1.066664,1.599995 -1.999995,3.733323 -0.933331,2.133328 -3.199992,5.599986 -2.133328,3.99999 -4.799988,9.199977 -2.66666,5.199986 -4.533321,8.266645 -0.933331,1.466663 -1.733329,2.533327 -0.666665,1.066664 -0.933331,1.733329 -0.533332,1.466663 -1.733329,3.599991 -1.199997,2.133327 -2.799993,4.133322 -0.799998,1.199997 -2.133328,2.799993 -1.199997,1.599996 -2.133328,2.933326 -0.933331,1.199997 -0.933331,1.199997 -0.266666,0.799998 -1.733329,2.533327 -1.466663,1.733329 -3.59999,3.866657 -1.999995,1.9999945 -4.133323,3.7333234 -4.666655,3.7333238 -7.733314,4.6666548 -2.933326,0.9333309 -6.799982,-2.2666609 -1.733329,-2.1333279 -2.799993,-4.2666558 -1.066664,-2.2666605 -1.066664,-6.1333175 0,-3.866657 1.33333,-10.799973 0.933331,-4.399988 1.999995,-9.333309 1.199997,-4.933321 2.399993,-9.466642 1.199997,-4.666655 2.133328,-7.99998 1.066664,-3.466658 1.466663,-4.799988 0.399999,-3.333325 0.133333,-3.466658 -0.266666,-0.266666 -1.33333,1.466663 -0.933331,1.466663 -3.466657,6.133318 -2.533327,4.666655 -5.733319,10.933305 -3.066659,6.266651 -5.999985,12.533302 -5.466653,10.133307 -9.199976,16.93329 -3.733324,6.7999824 -6.133318,10.9333051 -2.399994,3.9999898 -3.733324,5.9999847 -1.199997,2.1333279 -1.866662,2.9333258 -0.533332,0.933331 -0.799998,1.199997 Q 9.1999765,7.5999806 7.7333136,5.8666517 6.2666507,4.1333228 5.3333197,1.7333289 5.0666537,0.39999898 4.9333207,-1.0666639 q -0.133333,-1.466663 0.266666,-3.1999919 0.533332,-1.8666619 1.5999959,-3.9999897 1.7333289,-3.4666575 3.3333244,-5.8666515 1.599996,-2.399994 1.999995,-2.933326 0.666665,-0.933331 1.066664,-1.999995 0.399999,-1.066664 0.533332,-1.999995 0.666665,-0.799998 1.999995,-3.333325 1.466663,-2.533326 2.933326,-5.466652 1.066664,-1.733329 2.933326,-4.799988 1.866662,-3.199992 3.99999,-6.799983 2.133327,-3.733323 3.733323,-6.799982 5.866652,-10.533307 9.33331,-16.799957 3.466658,-6.399984 4.933321,-8.133313 0.933331,-0.666665 1.599995,-2.533327 0.799998,-1.999995 1.33333,-2.933326 1.866662,-3.733323 3.733324,-6.133317 1.999995,-2.533327 3.466658,-2.533327 1.066664,0 2.66666,0.799998 1.733329,0.799998 3.333325,2.266661 1.466663,1.733329 2.66666,4.666654 1.333329,2.799993 0.533331,7.466648 -0.133333,2.133328 -0.666664,5.199987 -0.533332,2.933326 -1.066664,5.866651 -0.533332,2.933326 -1.066664,4.933321 -1.066664,5.999985 -2.399994,11.466637 -1.199997,5.33332 -2.266661,9.866642 -1.066664,4.533322 -1.733329,7.999979 -0.666665,3.333325 -0.933331,5.466653 -0.133333,2.133328 0.533332,2.799993 0.399999,0.133333 1.066664,-0.266666 0.799998,-0.533332 1.199997,-1.066664 0.799998,-1.066664 1.466663,-2.133328 0.666665,-1.066664 1.733329,-2.66666 2.133328,-2.933325 4.399988,-6.399983 2.399994,-3.599991 5.599986,-8.799978 3.333325,-5.333319 7.866647,-13.066633 4.533321,-7.866647 11.066638,-19.466617 3.066659,-4.666655 5.866652,-9.333309 2.799993,-4.666655 5.066653,-7.199982 1.999996,-2.133328 4.933326,-1.466663 3.06665,0.666665 5.59998,3.333325 2.53333,2.66666 2.79999,6.533316 0.13334,1.866662 -0.79999,6.66665 -0.8,4.666655 -2.26667,10.533307 -1.46666,5.866651 -3.33332,11.466637 -0.4,2.266661 -1.33333,5.999985 -0.93333,3.733323 -1.99999,7.59998 -1.06667,3.866657 -2,6.933316 -0.933331,4.533321 -1.599996,7.199981 -0.533331,2.66666 -0.533331,6.133318 -1.199997,2.133328 -1.599996,6.133318 -0.399999,3.9999894 -0.399999,8.2666452 -0.533332,5.1999867 -2.266661,7.3333146 -1.599996,2.1333279 -2.133328,1.9999949 -1.066664,-0.399999 -1.733329,0.6666649 z"
       id="text2"
       style="font-weight:700;font-size:133.333px;font-family:Caveat, Caveat_MSFontService, sans-serif;fill:#00e5ff;fill-opacity:1"
       transform="translate(67.5092 136)"
       aria-label="M" />
  </g>
</svg>
